<svg width="12" height="12" viewBox="0 0 12 12" fill="none" xmlns="http://www.w3.org/2000/svg">
<path fill-rule="evenodd" clip-rule="evenodd" d="M0.0260078 3.3294C0.0260078 2.72016 0.504373 2.20902 1.1649 2.20793C1.82549 2.20676 2.25221 2.20902 2.25221 2.20902C2.25221 2.20902 2.22383 1.55794 2.22383 1.04014C2.22383 0.522198 2.67937 0.00388887 3.34033 0.00388887C4.00129 0.00388887 10.1293 -0.0151314 10.7508 0.0309567C11.3723 0.0770449 11.8669 0.467916 11.8669 1.09662C11.8669 1.72532 11.8629 7.95914 11.8629 8.53656C11.8629 9.11391 11.345 9.63851 10.7028 9.64575C10.0606 9.65306 9.62544 9.63843 9.62544 9.63843C9.62544 9.63843 9.64907 10.3678 9.64907 10.8158C9.64907 11.2637 9.1282 11.9143 8.51705 11.9143C7.90591 11.9143 1.70501 11.954 1.11332 11.954C0.521638 11.954 -0.0243967 11.4334 0.000842036 10.7844C0.0260808 10.1355 0.0260809 3.9385 0.0260809 3.3294H0.0260078ZM3.39556 1.24542L3.39059 8.42668C3.39059 8.50686 3.45599 8.57226 3.53683 8.57182L10.5272 8.53451C10.5661 8.53434 10.6033 8.51876 10.6307 8.4912C10.6581 8.46364 10.6735 8.42633 10.6734 8.38747L10.6687 1.27065C10.6687 1.23169 10.6531 1.19435 10.6256 1.16682C10.598 1.13929 10.5606 1.12383 10.5217 1.12383L3.54261 1.09998C3.52338 1.09979 3.5043 1.10341 3.48648 1.11063C3.46866 1.11785 3.45244 1.12853 3.43877 1.14205C3.4251 1.15557 3.41424 1.17167 3.40683 1.18941C3.39941 1.20715 3.39558 1.22619 3.39556 1.24542ZM1.15685 3.62715L1.22386 10.6681C1.22434 10.7069 1.24015 10.7439 1.26784 10.7711C1.29553 10.7982 1.33285 10.8133 1.37164 10.8131L8.25742 10.7608C8.29579 10.7606 8.33373 10.7528 8.36907 10.7378C8.4044 10.7229 8.43643 10.7011 8.46331 10.6737C8.49019 10.6463 8.51139 10.6139 8.52569 10.5783C8.53998 10.5427 8.54709 10.5046 8.54661 10.4663L8.53659 9.65153C8.53659 9.65153 3.93677 9.69381 3.33858 9.69381C2.74038 9.69381 2.2092 9.12759 2.2092 8.4904C2.2092 7.85321 2.25221 3.4646 2.25221 3.4646C2.25294 3.38413 2.18827 3.31902 2.10766 3.32011L1.44728 3.32962C1.36935 3.33068 1.29502 3.3626 1.24058 3.41837C1.18614 3.47414 1.15603 3.54922 1.15685 3.62715Z" fill="black"/>
</svg>
