<svg width="1244" height="1024" viewBox="0 0 1244 1024" fill="none" xmlns="http://www.w3.org/2000/svg">
<path d="M622 -119C457.035 -119 298.827 -53.8716 182.18 62.0576C65.5319 177.987 1.29904e-05 335.221 1.29904e-05 499.169C-0.0266656 628.94 41.0401 755.428 117.381 860.709C193.722 965.99 301.464 1044.72 425.341 1085.75C456.441 1091.5 467.861 1072.33 467.861 1056C467.861 1041.27 467.277 992.594 466.986 940.919C293.944 978.347 257.45 867.994 257.45 867.994C229.168 796.518 188.398 777.539 188.398 777.539C131.932 739.193 192.626 739.965 192.626 739.965C255.117 744.312 287.967 803.666 287.967 803.666C343.461 898.178 433.505 870.843 468.978 855.051C474.567 815.112 490.7 787.825 508.485 772.371C370.333 756.772 225.086 703.745 225.086 466.909C224.257 405.532 247.206 346.189 289.181 301.162C282.718 285.563 261.434 222.732 295.207 137.54C295.207 137.54 347.445 120.927 466.306 200.903C516.996 187.22 569.279 180.237 621.806 180.136C674.429 180.227 726.81 187.209 777.597 200.903C896.36 120.927 948.501 137.54 948.501 137.54C982.517 222.732 961.039 285.563 954.576 301.162C996.623 346.218 1019.56 405.657 1018.62 467.102C1018.62 704.517 873.084 756.868 734.592 772.081C756.896 791.399 776.771 828.876 776.771 886.587C776.771 969.268 776.042 1035.87 776.042 1056.2C776.042 1072.67 787.267 1091.94 818.805 1085.85C942.67 1044.79 1050.39 966.031 1126.71 860.733C1203.02 755.435 1244.06 628.939 1244 499.169C1244 335.221 1178.47 177.987 1061.82 62.0576C945.173 -53.8716 786.965 -119 622 -119Z" fill="url(#paint0_linear_1_1020)" fill-opacity="0.3"/>
<defs>
<linearGradient id="paint0_linear_1_1020" x1="472.405" y1="115.587" x2="851.376" y2="1054.02" gradientUnits="userSpaceOnUse">
<stop stop-color="#DCEFFF"/>
<stop offset="1" stop-color="#DCEFFF" stop-opacity="0"/>
</linearGradient>
</defs>
</svg>
