<svg width="13" height="12" viewBox="0 0 13 12" fill="none" xmlns="http://www.w3.org/2000/svg">
<path d="M6.5 0C4.77609 0 3.12279 0.648043 1.90381 1.80157C0.684819 2.95509 1.35751e-07 4.51961 1.35751e-07 6.15094C-0.00027866 7.44219 0.428876 8.70078 1.22665 9.74835C2.02442 10.7959 3.15035 11.5793 4.44488 11.9876C4.76988 12.0448 4.88922 11.854 4.88922 11.6916C4.88922 11.545 4.88312 11.0606 4.88008 10.5465C3.07176 10.9189 2.69039 9.82084 2.69039 9.82084C2.39484 9.10963 1.96879 8.92078 1.96879 8.92078C1.37871 8.53923 2.01297 8.54692 2.01297 8.54692C2.66602 8.59017 3.0093 9.18075 3.0093 9.18075C3.58922 10.1212 4.5302 9.84919 4.9009 9.69205C4.9593 9.29464 5.12789 9.02314 5.31375 8.86936C3.87004 8.71415 2.35219 8.18651 2.35219 5.82994C2.34353 5.21923 2.58334 4.62874 3.02199 4.18072C2.95445 4.0255 2.73203 3.40032 3.08496 2.55264C3.08496 2.55264 3.63086 2.38733 4.87297 3.18311C5.40269 3.04696 5.94906 2.97749 6.49797 2.97648C7.04789 2.97738 7.59528 3.04685 8.12602 3.18311C9.36711 2.38733 9.91199 2.55264 9.91199 2.55264C10.2675 3.40032 10.043 4.0255 9.97547 4.18072C10.4149 4.62904 10.6546 5.22046 10.6448 5.83186C10.6448 8.1942 9.12387 8.71511 7.6766 8.86648C7.90969 9.0587 8.11738 9.4316 8.11738 10.0058C8.11738 10.8285 8.10977 11.4912 8.10977 11.6935C8.10977 11.8574 8.22707 12.0491 8.55664 11.9886C9.85105 11.58 10.9768 10.7963 11.7743 9.74859C12.5718 8.70085 13.0006 7.44217 13 6.15094C13 4.51961 12.3152 2.95509 11.0962 1.80157C9.87721 0.648043 8.22391 0 6.5 0Z" fill="black"/>
</svg>
